<svg version="1.1" id="Camada_1" xmlns="http://www.w3.org/2000/svg" xmlns:xlink="http://www.w3.org/1999/xlink" x="0px" y="0px" viewBox="0 0 189.1 67.5" style="enable-background:new 0 0 189.1 67.5;" xml:space="preserve">
<style type="text/css">
	.st0{display:none;}
	.st1{display:inline;}
	.st2{fill:#FFFFFF;}
	.st3{fill:none;}
	.st4{fill:#FFC045;}
</style>
<g class="st0">
	<g class="st1">
		<g>
			<g>
				<path class="st2" d="M179.9,67.3H9.4c-5,0-9-4.1-9-9v-49c0-5,4.1-9,9-9h170.5c5,0,9,4.1,9,9v49      C188.9,63.3,184.9,67.3,179.9,67.3z M9.4,2.6c-3.7,0-6.7,3-6.7,6.7v49c0,3.7,3,6.7,6.7,6.7h170.5c3.7,0,6.7-3,6.7-6.7v-49      c0-3.7-3-6.7-6.7-6.7H9.4z"/>
			</g>
		</g>
		<g>
			<path class="st3" d="M93.6,38.4c-0.9,0-1.6,0.3-2.3,0.8c-0.7,0.6-1.2,1.3-1.4,2.2c-0.1,0.4-0.2,0.8-0.2,1.1v2.6     c0,1.1,0.3,2.1,1,2.9c0.7,0.8,1.6,1.2,2.7,1.2c1.3,0,2.3-0.5,3-1.5c0.7-1,1.1-2.3,1.1-4c0-1.5-0.3-2.8-1-3.7     C95.9,38.9,94.9,38.4,93.6,38.4z"/>
			<path class="st3" d="M76.5,38.4c-0.9,0-1.6,0.3-2.3,0.8c-0.7,0.6-1.1,1.3-1.4,2.2c-0.1,0.4-0.2,0.8-0.2,1.1v2.6     c0,1.1,0.3,2.1,1,2.9c0.7,0.8,1.6,1.2,2.7,1.2c1.3,0,2.3-0.5,3-1.5c0.7-1,1.1-2.3,1.1-4c0-1.5-0.3-2.8-1-3.7     C78.8,38.9,77.8,38.4,76.5,38.4z"/>
			<path class="st3" d="M57.9,32.8L57.9,32.8c-0.3,0.9-0.6,2.3-1.1,4.1L55,42.5h5.8L59,36.9C58.8,36.3,58.4,34.9,57.9,32.8z"/>
			<path class="st3" d="M139.6,38.2c-1.4,0-2.4,0.6-3.2,1.9c-0.6,1-0.9,2.3-0.9,3.7c0,1.4,0.3,2.7,0.9,3.7c0.7,1.2,1.8,1.8,3.1,1.8     c1.3,0,2.4-0.6,3.1-1.9c0.6-1,1-2.3,1-3.7c0-1.4-0.3-2.7-0.9-3.7C142,38.8,141,38.2,139.6,38.2z"/>
			<path class="st3" d="M165.9,38c-1.1,0-2,0.5-2.8,1.4c-0.6,0.7-0.9,1.6-1,2.7h7.2c0-1-0.2-1.9-0.7-2.7     C168.1,38.5,167.1,38,165.9,38z"/>
			<path class="st2" d="M77.7,35.6c-2.4,0-4.1,0.9-5.3,2.8h-0.1l-0.2-2.5h-3c0.1,1.7,0.1,3.5,0.1,5.1v16.8h3.5v-8.2     c0.9,1.5,2.4,2.2,4.4,2.2c1.9,0,3.5-0.7,4.8-2c1.4-1.5,2.2-3.6,2.2-6.3c0-2.4-0.6-4.3-1.8-5.7C81,36.3,79.5,35.6,77.7,35.6z      M79.5,47.6c-0.7,1-1.7,1.5-3,1.5c-1.1,0-2-0.4-2.7-1.2c-0.7-0.8-1-1.7-1-2.9v-2.6c0-0.3,0.1-0.6,0.2-1.1     c0.2-0.9,0.7-1.7,1.4-2.2c0.7-0.6,1.5-0.8,2.3-0.8c1.3,0,2.3,0.5,3,1.5c0.7,1,1,2.2,1,3.7C80.6,45.3,80.2,46.6,79.5,47.6z"/>
			<path class="st2" d="M55.8,29.9l-6.9,21.6h3.6l1.9-6.3h7l2,6.3h3.7l-7-21.6H55.8z M55,42.5l1.8-5.6c0.5-1.8,0.8-3.2,1-4.1h0.1     c0.5,2.1,0.9,3.5,1.1,4.1l1.8,5.6H55z"/>
			<path class="st2" d="M172.6,43c0-1.9-0.5-3.6-1.4-4.9c-1.2-1.7-2.8-2.5-5.1-2.5c-2.3,0-4.1,0.8-5.4,2.5c-1.3,1.6-1.9,3.5-1.9,5.9     c0,2.4,0.7,4.3,2.1,5.7c1.4,1.4,3.3,2.1,5.7,2.1c2,0,3.8-0.3,5.2-1l-0.5-2.4c-1.3,0.5-2.7,0.7-4.2,0.7c-1.4,0-2.5-0.4-3.4-1.1     c-1-0.8-1.5-2-1.5-3.5h10.4C172.6,44.1,172.6,43.6,172.6,43z M162.1,42.1c0.1-1,0.4-1.9,1-2.7c0.7-0.9,1.6-1.4,2.8-1.4     c1.2,0,2.2,0.5,2.8,1.4c0.5,0.8,0.7,1.6,0.7,2.7H162.1z"/>
			<path class="st2" d="M127.2,32.1l-3.4,1v2.9h-2.3v2.6h2.3v7.9c0,2,0.4,3.4,1.2,4.2c0.8,0.8,1.8,1.2,3.2,1.2c1.1,0,2-0.1,2.7-0.4     l-0.1-2.6c-0.4,0.1-0.9,0.2-1.5,0.2c-1.3,0-2-1-2-2.9v-7.6h3.8v-2.6h-3.8V32.1z"/>
			<path class="st2" d="M154.3,36.5c-0.8,0.6-1.4,1.4-1.7,2.5h-0.1l-0.1-3h-3c0.1,1.5,0.1,3.1,0.1,4.9v10.7h3.5v-8.2     c0-1.2,0.3-2.3,0.9-3.1c0.7-0.9,1.6-1.4,2.8-1.4c0.4,0,0.7,0,1.1,0.1v-3.3c-0.3,0-0.5-0.1-0.9-0.1     C155.9,35.6,155.1,35.9,154.3,36.5z"/>
			<path class="st2" d="M139.8,35.6c-2.4,0-4.3,0.8-5.7,2.3c-1.4,1.5-2.1,3.5-2.1,5.9c0,2.3,0.7,4.2,2,5.7c1.4,1.5,3.2,2.3,5.5,2.3     c2.4,0,4.3-0.8,5.7-2.4c1.4-1.5,2-3.5,2-5.9c0-2.3-0.7-4.2-2-5.7C143.9,36.4,142.1,35.6,139.8,35.6z M142.7,47.4     c-0.7,1.3-1.8,1.9-3.1,1.9c-1.4,0-2.4-0.6-3.1-1.8c-0.6-1-0.9-2.2-0.9-3.7c0-1.5,0.3-2.7,0.9-3.7c0.7-1.2,1.8-1.9,3.2-1.9     c1.3,0,2.4,0.6,3.1,1.9c0.6,1,0.9,2.2,0.9,3.7C143.7,45.1,143.4,46.3,142.7,47.4z"/>
			<path class="st2" d="M115.3,39.1c-1.5-0.6-2.6-1.2-3.1-1.7c-0.7-0.6-1-1.3-1-2.1c0-0.8,0.3-1.4,0.9-2c0.7-0.6,1.6-0.9,2.9-0.9     c1.5,0,2.9,0.3,4.1,1l0.9-2.8c-1.3-0.7-2.9-1-4.9-1c-2.2,0-4,0.6-5.3,1.7c-1.3,1.1-2,2.6-2,4.4c0,2.7,1.9,4.8,5.7,6.2     c1.4,0.5,2.4,1.1,3,1.7c0.6,0.6,0.9,1.3,0.9,2.2c0,1-0.4,1.8-1.1,2.4c-0.7,0.6-1.7,0.9-3,0.9c-1.8,0-3.5-0.5-5-1.3l-0.8,2.9     c1.4,0.9,3.3,1.3,5.6,1.3c2.5,0,4.5-0.6,5.9-1.9c1.3-1.1,1.9-2.6,1.9-4.5c0-1.5-0.4-2.7-1.3-3.7     C118.6,40.7,117.2,39.8,115.3,39.1z"/>
			<path class="st2" d="M94.8,35.6c-2.3,0-4.1,0.9-5.3,2.8h-0.1l-0.2-2.5h-3c0.1,1.7,0.1,3.5,0.1,5.1v16.8h3.5v-8.2     c0.9,1.5,2.4,2.2,4.4,2.2c1.9,0,3.5-0.7,4.8-2c1.4-1.5,2.2-3.6,2.2-6.3c0-2.4-0.6-4.3-1.8-5.7C98.1,36.3,96.6,35.6,94.8,35.6z      M96.6,47.6c-0.7,1-1.7,1.5-3,1.5c-1.1,0-2-0.4-2.7-1.2c-0.7-0.8-1-1.7-1-2.9v-2.6c0-0.3,0.1-0.6,0.2-1.1     c0.2-0.9,0.7-1.7,1.4-2.2c0.7-0.6,1.5-0.8,2.3-0.8c1.3,0,2.3,0.5,3,1.5c0.7,1,1,2.2,1,3.7C97.7,45.3,97.3,46.6,96.6,47.6z"/>
			<path class="st4" d="M18.5,54.5h15.2c2,0,3.5-1.6,3.5-3.5V17.1c0-2-1.6-3.5-3.5-3.5H18.5c-2,0-3.6,1.6-3.6,3.5v33.8     C14.9,52.9,16.5,54.5,18.5,54.5z M26.1,52.6c-1,0-1.8-0.8-1.8-1.8c0-1,0.8-1.8,1.8-1.8c1,0,1.8,0.8,1.8,1.8     C27.9,51.8,27.1,52.6,26.1,52.6z M27.8,17.2c0.2,0,0.4,0.2,0.4,0.4c0,0.2-0.2,0.4-0.4,0.4h-3.5c-0.2,0-0.4-0.2-0.4-0.4     c0-0.2,0.2-0.4,0.4-0.4 M17.1,20.7h18v26.6h-18V20.7z"/>
		</g>
	</g>
	<g class="st1">
		<path class="st2" d="M49,15h4.2c0.8,0,1.4,0.1,2,0.4c0.6,0.3,1,0.6,1.4,1.1c0.4,0.5,0.6,1,0.8,1.6c0.2,0.6,0.3,1.3,0.3,2    c0,0.7-0.1,1.3-0.3,2c-0.2,0.6-0.4,1.1-0.8,1.6c-0.4,0.5-0.8,0.8-1.4,1.1c-0.6,0.3-1.2,0.4-2,0.4H49V15z M50.7,23.6h1.7    c0.7,0,1.2-0.1,1.7-0.3c0.4-0.2,0.8-0.4,1-0.8c0.2-0.3,0.4-0.7,0.5-1.1c0.1-0.4,0.1-0.9,0.1-1.4c0-0.5,0-1-0.1-1.4    c-0.1-0.4-0.3-0.8-0.5-1.1c-0.2-0.3-0.6-0.6-1-0.8s-1-0.3-1.7-0.3h-1.7V23.6z"/>
		<path class="st2" d="M59,15h1.6v1.5H59V15z M59,17.7h1.6V25H59V17.7z"/>
		<path class="st2" d="M63.5,22.7c0,0.5,0.2,0.8,0.5,1c0.3,0.2,0.7,0.3,1.1,0.3c0.1,0,0.3,0,0.5,0c0.2,0,0.4-0.1,0.5-0.1    c0.2-0.1,0.3-0.2,0.4-0.3c0.1-0.1,0.2-0.3,0.1-0.5c0-0.2-0.1-0.4-0.2-0.5c-0.1-0.1-0.3-0.2-0.5-0.3c-0.2-0.1-0.5-0.1-0.8-0.2    c-0.3-0.1-0.6-0.1-0.9-0.2c-0.3-0.1-0.6-0.1-0.9-0.2c-0.3-0.1-0.5-0.2-0.7-0.4c-0.2-0.2-0.4-0.4-0.5-0.6c-0.1-0.2-0.2-0.6-0.2-0.9    c0-0.4,0.1-0.7,0.3-1c0.2-0.3,0.4-0.5,0.7-0.6c0.3-0.2,0.6-0.3,1-0.3c0.4-0.1,0.7-0.1,1-0.1c0.4,0,0.7,0,1.1,0.1    c0.3,0.1,0.7,0.2,0.9,0.4c0.3,0.2,0.5,0.4,0.7,0.7c0.2,0.3,0.3,0.6,0.3,1h-1.7c-0.1-0.4-0.3-0.6-0.5-0.8c-0.3-0.1-0.6-0.2-0.9-0.2    c-0.1,0-0.2,0-0.4,0c-0.2,0-0.3,0.1-0.4,0.1C64,19,63.9,19,63.8,19.1c-0.1,0.1-0.1,0.2-0.1,0.4c0,0.2,0.1,0.4,0.2,0.5    c0.1,0.1,0.3,0.2,0.5,0.3c0.2,0.1,0.5,0.1,0.8,0.2c0.3,0.1,0.6,0.1,0.9,0.2c0.3,0.1,0.6,0.1,0.9,0.2c0.3,0.1,0.5,0.2,0.8,0.4    c0.2,0.2,0.4,0.4,0.5,0.6c0.1,0.2,0.2,0.5,0.2,0.9c0,0.4-0.1,0.8-0.3,1.1c-0.2,0.3-0.5,0.5-0.8,0.7c-0.3,0.2-0.7,0.3-1,0.4    c-0.4,0.1-0.8,0.1-1.1,0.1c-0.5,0-0.9-0.1-1.3-0.2c-0.4-0.1-0.7-0.3-1-0.5c-0.3-0.2-0.5-0.5-0.7-0.8c-0.2-0.3-0.3-0.7-0.3-1.1    H63.5z"/>
		<path class="st2" d="M69.6,17.7h1.5v1h0c0.2-0.4,0.5-0.7,0.9-0.9c0.4-0.2,0.8-0.3,1.3-0.3c0.6,0,1.1,0.1,1.5,0.3    c0.4,0.2,0.8,0.5,1.1,0.8c0.3,0.4,0.5,0.8,0.6,1.2c0.1,0.5,0.2,1,0.2,1.5c0,0.5-0.1,1-0.2,1.4c-0.1,0.5-0.3,0.9-0.6,1.2    c-0.3,0.4-0.6,0.6-1,0.8c-0.4,0.2-0.9,0.3-1.4,0.3c-0.2,0-0.5,0-0.7-0.1c-0.2,0-0.5-0.1-0.7-0.2c-0.2-0.1-0.4-0.2-0.6-0.4    c-0.2-0.1-0.3-0.3-0.5-0.5h0v3.6h-1.6V17.7z M75.2,21.4c0-0.3,0-0.6-0.1-1c-0.1-0.3-0.2-0.6-0.4-0.8c-0.2-0.2-0.4-0.4-0.6-0.6    c-0.3-0.1-0.5-0.2-0.9-0.2c-0.7,0-1.2,0.2-1.5,0.7c-0.3,0.5-0.5,1.1-0.5,1.9c0,0.4,0,0.7,0.1,1c0.1,0.3,0.2,0.6,0.4,0.8    c0.2,0.2,0.4,0.4,0.6,0.5s0.5,0.2,0.9,0.2c0.4,0,0.7-0.1,0.9-0.2s0.5-0.3,0.6-0.6c0.2-0.2,0.3-0.5,0.4-0.8    C75.2,22,75.2,21.7,75.2,21.4z"/>
		<path class="st2" d="M81.5,25.2c-0.6,0-1.1-0.1-1.6-0.3c-0.5-0.2-0.8-0.5-1.2-0.8c-0.3-0.3-0.6-0.7-0.7-1.2    c-0.2-0.5-0.2-1-0.2-1.5c0-0.6,0.1-1.1,0.2-1.5c0.2-0.5,0.4-0.9,0.7-1.2c0.3-0.3,0.7-0.6,1.2-0.8c0.5-0.2,1-0.3,1.6-0.3    c0.6,0,1.1,0.1,1.6,0.3c0.5,0.2,0.8,0.5,1.2,0.8c0.3,0.3,0.6,0.7,0.7,1.2c0.2,0.5,0.2,1,0.2,1.5c0,0.6-0.1,1.1-0.2,1.5    c-0.2,0.5-0.4,0.9-0.7,1.2c-0.3,0.3-0.7,0.6-1.2,0.8C82.6,25.1,82.1,25.2,81.5,25.2z M81.5,23.9c0.4,0,0.7-0.1,0.9-0.2    c0.3-0.1,0.5-0.3,0.6-0.6c0.2-0.2,0.3-0.5,0.4-0.8c0.1-0.3,0.1-0.6,0.1-0.9c0-0.3,0-0.6-0.1-0.9c-0.1-0.3-0.2-0.6-0.4-0.8    c-0.2-0.2-0.4-0.4-0.6-0.6c-0.3-0.1-0.6-0.2-0.9-0.2c-0.4,0-0.7,0.1-0.9,0.2c-0.3,0.1-0.5,0.3-0.6,0.6c-0.2,0.2-0.3,0.5-0.4,0.8    c-0.1,0.3-0.1,0.6-0.1,0.9c0,0.3,0,0.6,0.1,0.9c0.1,0.3,0.2,0.6,0.4,0.8c0.2,0.2,0.4,0.4,0.6,0.6C80.8,23.8,81.1,23.9,81.5,23.9z"/>
		<path class="st2" d="M86.5,17.7H88v1.1l0,0c0.2-0.4,0.6-0.7,1-0.9c0.4-0.2,0.8-0.3,1.3-0.3c0.8,0,1.4,0.2,1.9,0.6    c0.5,0.4,0.7,1,0.7,1.9v5h-1.6v-4.6c0-0.6-0.1-1-0.4-1.2c-0.2-0.3-0.6-0.4-1.1-0.4c-0.3,0-0.5,0-0.7,0.1c-0.2,0.1-0.4,0.2-0.5,0.4    c-0.1,0.2-0.3,0.4-0.4,0.6c-0.1,0.2-0.1,0.5-0.1,0.7V25h-1.6V17.7z"/>
		<path class="st2" d="M95.9,14.7h1.9l-2,2h-1.2L95.9,14.7z M94.6,25v-7.3h1.6V25H94.6z"/>
		<path class="st2" d="M97.2,17.7H99l1.8,5.6h0l1.8-5.6h1.7l-2.6,7.3h-1.8L97.2,17.7z"/>
		<path class="st2" d="M106.5,21.8c0,0.3,0,0.6,0.1,0.8c0.1,0.3,0.2,0.5,0.4,0.7c0.2,0.2,0.4,0.4,0.6,0.5c0.2,0.1,0.5,0.2,0.9,0.2    c0.5,0,0.8-0.1,1.1-0.3c0.3-0.2,0.5-0.5,0.6-0.9h1.5c-0.1,0.4-0.2,0.7-0.4,1.1c-0.2,0.3-0.5,0.6-0.7,0.8c-0.3,0.2-0.6,0.4-1,0.5    c-0.4,0.1-0.7,0.2-1.1,0.2c-0.6,0-1.1-0.1-1.5-0.3c-0.4-0.2-0.8-0.4-1.1-0.8c-0.3-0.3-0.5-0.7-0.7-1.2c-0.2-0.5-0.2-1-0.2-1.5    c0-0.5,0.1-1,0.2-1.5c0.2-0.5,0.4-0.9,0.7-1.2c0.3-0.4,0.7-0.6,1.1-0.8c0.4-0.2,0.9-0.3,1.5-0.3c0.6,0,1.1,0.1,1.5,0.4    c0.5,0.2,0.8,0.6,1.1,0.9c0.3,0.4,0.5,0.8,0.7,1.4c0.1,0.5,0.2,1,0.1,1.6H106.5z M110.2,20.7c0-0.3-0.1-0.5-0.2-0.7    c-0.1-0.2-0.2-0.4-0.4-0.6c-0.2-0.2-0.3-0.3-0.6-0.4c-0.2-0.1-0.5-0.2-0.7-0.2c-0.3,0-0.5,0-0.8,0.1s-0.4,0.2-0.6,0.4    c-0.2,0.2-0.3,0.4-0.4,0.6c-0.1,0.2-0.2,0.5-0.2,0.8H110.2z"/>
		<path class="st2" d="M113.1,15h1.6v10h-1.6V15z"/>
		<path class="st2" d="M120.3,17.7h1.5v1.1l0,0c0.2-0.4,0.6-0.7,1-0.9c0.4-0.2,0.8-0.3,1.3-0.3c0.8,0,1.4,0.2,1.9,0.6    c0.5,0.4,0.7,1,0.7,1.9v5h-1.6v-4.6c0-0.6-0.1-1-0.4-1.2c-0.2-0.3-0.6-0.4-1.1-0.4c-0.3,0-0.5,0-0.7,0.1c-0.2,0.1-0.4,0.2-0.5,0.4    c-0.1,0.2-0.3,0.4-0.4,0.6c-0.1,0.2-0.1,0.5-0.1,0.7V25h-1.6V17.7z"/>
		<path class="st2" d="M134.5,23.4c0,0.2,0,0.3,0.1,0.4c0.1,0.1,0.2,0.1,0.3,0.1c0,0,0.1,0,0.2,0c0.1,0,0.1,0,0.2,0V25    c-0.1,0-0.1,0-0.2,0.1c-0.1,0-0.2,0-0.3,0.1c-0.1,0-0.2,0-0.3,0c-0.1,0-0.2,0-0.2,0c-0.3,0-0.6-0.1-0.8-0.2    c-0.2-0.1-0.4-0.4-0.4-0.7c-0.3,0.3-0.7,0.5-1.2,0.7c-0.5,0.1-0.9,0.2-1.3,0.2c-0.3,0-0.6,0-0.9-0.1c-0.3-0.1-0.6-0.2-0.8-0.4    c-0.2-0.2-0.4-0.4-0.5-0.7c-0.1-0.3-0.2-0.6-0.2-0.9c0-0.4,0.1-0.8,0.2-1.1c0.2-0.3,0.4-0.5,0.6-0.7c0.3-0.2,0.6-0.3,0.9-0.3    c0.3-0.1,0.7-0.1,1-0.2c0.3-0.1,0.6-0.1,0.8-0.1c0.3,0,0.5-0.1,0.7-0.1c0.2-0.1,0.4-0.1,0.5-0.3c0.1-0.1,0.2-0.3,0.2-0.5    c0-0.2,0-0.4-0.1-0.5c-0.1-0.1-0.2-0.2-0.4-0.3c-0.1-0.1-0.3-0.1-0.5-0.1c-0.2,0-0.3,0-0.5,0c-0.4,0-0.8,0.1-1.1,0.3    c-0.3,0.2-0.5,0.5-0.5,0.9h-1.6c0-0.5,0.1-0.9,0.3-1.2c0.2-0.3,0.4-0.6,0.8-0.7c0.3-0.2,0.6-0.3,1-0.4c0.4-0.1,0.8-0.1,1.2-0.1    c0.4,0,0.7,0,1.1,0.1c0.3,0.1,0.7,0.2,0.9,0.4c0.3,0.2,0.5,0.4,0.7,0.7c0.2,0.3,0.3,0.6,0.3,1V23.4z M132.9,21.3    c-0.2,0.2-0.5,0.3-0.9,0.3c-0.4,0-0.7,0.1-1.1,0.1c-0.2,0-0.3,0.1-0.5,0.1c-0.2,0.1-0.3,0.1-0.4,0.2c-0.1,0.1-0.2,0.2-0.3,0.4    c-0.1,0.1-0.1,0.3-0.1,0.5c0,0.2,0.1,0.3,0.2,0.4c0.1,0.1,0.2,0.2,0.4,0.3c0.1,0.1,0.3,0.1,0.5,0.1c0.2,0,0.3,0,0.5,0    c0.2,0,0.4,0,0.6-0.1c0.2,0,0.4-0.1,0.6-0.2c0.2-0.1,0.3-0.3,0.5-0.4c0.1-0.2,0.2-0.4,0.2-0.6V21.3z"/>
	</g>
</g>
<g>
	<g>
		<g>
			<path class="st2" d="M74.3,34.7c0,2.5-0.7,4.4-2.2,5.9c-1.7,1.7-3.8,2.6-6.5,2.6c-2.5,0-4.7-0.9-6.5-2.6     c-1.8-1.8-2.7-3.9-2.7-6.5s0.9-4.8,2.7-6.5c1.8-1.8,3.9-2.6,6.5-2.6c1.3,0,2.5,0.2,3.6,0.7c1.1,0.5,2.1,1.1,2.8,2l-1.5,1.5     c-1.2-1.4-2.8-2.1-4.8-2.1c-1.9,0-3.5,0.7-4.8,2c-1.4,1.3-2,3-2,5.1c0,2.1,0.7,3.8,2,5.1c1.4,1.3,3,2,4.8,2c2,0,3.6-0.7,4.9-2     c0.9-0.9,1.3-2,1.5-3.6h-6.4v-2.1h8.5C74.3,33.9,74.3,34.3,74.3,34.7z"/>
		</g>
		<g>
			<path class="st2" d="M77,32.2c1.2-1.2,2.6-1.8,4.4-1.8c1.8,0,3.3,0.6,4.4,1.8c1.2,1.2,1.7,2.7,1.7,4.6c0,1.8-0.6,3.4-1.7,4.6     c-1.2,1.2-2.6,1.8-4.4,1.8c-1.8,0-3.3-0.6-4.4-1.8c-1.2-1.2-1.7-2.7-1.7-4.6C75.2,35,75.8,33.5,77,32.2z M78.7,40     c0.8,0.8,1.7,1.2,2.8,1.2c1.1,0,2-0.4,2.8-1.2c0.8-0.8,1.2-1.8,1.2-3.2c0-1.3-0.4-2.4-1.2-3.2c-0.8-0.8-1.7-1.2-2.8-1.2     c-1.1,0-2,0.4-2.8,1.2c-0.8,0.8-1.2,1.8-1.2,3.2C77.5,38.1,77.9,39.2,78.7,40z"/>
		</g>
		<g>
			<path class="st2" d="M90.1,32.2c1.2-1.2,2.6-1.8,4.4-1.8c1.8,0,3.3,0.6,4.4,1.8c1.2,1.2,1.7,2.7,1.7,4.6c0,1.8-0.6,3.4-1.7,4.6     c-1.2,1.2-2.6,1.8-4.4,1.8c-1.8,0-3.3-0.6-4.4-1.8c-1.2-1.2-1.7-2.7-1.7-4.6C88.4,35,89,33.5,90.1,32.2z M91.8,40     c0.8,0.8,1.7,1.2,2.8,1.2c1.1,0,2-0.4,2.8-1.2c0.8-0.8,1.2-1.8,1.2-3.2c0-1.3-0.4-2.4-1.2-3.2c-0.8-0.8-1.7-1.2-2.8-1.2     c-1.1,0-2,0.4-2.8,1.2c-0.8,0.8-1.2,1.8-1.2,3.2C90.6,38.1,91,39.2,91.8,40z"/>
		</g>
		<g>
			<path class="st2" d="M107.4,48.5c-1.4,0-2.6-0.4-3.5-1.1c-0.9-0.7-1.5-1.5-1.9-2.4l2.1-0.9c0.2,0.7,0.7,1.2,1.3,1.6     c0.6,0.4,1.3,0.7,2.1,0.7c1.2,0,2.2-0.4,2.9-1.1c0.7-0.7,1.1-1.8,1.1-3v-1.2h-0.1c-0.4,0.6-0.9,1.1-1.7,1.5     c-0.7,0.4-1.5,0.6-2.4,0.6c-1.6,0-2.9-0.6-4-1.8c-1.1-1.2-1.7-2.8-1.7-4.6s0.6-3.3,1.7-4.6c1.1-1.2,2.5-1.8,4-1.8     c0.9,0,1.7,0.2,2.4,0.6c0.7,0.4,1.3,0.9,1.7,1.5h0.1v-1.7h2.2v11.4c0,2.1-0.6,3.6-1.8,4.7C110.6,48,109.2,48.5,107.4,48.5z      M107.6,41.2c1.1,0,2-0.4,2.7-1.2c0.7-0.8,1.1-1.8,1.1-3.2c0-1.3-0.4-2.4-1.1-3.2c-0.7-0.8-1.6-1.2-2.7-1.2c-1,0-1.9,0.4-2.7,1.2     c-0.8,0.8-1.1,1.8-1.1,3.2c0,1.3,0.4,2.4,1.1,3.2C105.7,40.8,106.6,41.2,107.6,41.2z"/>
		</g>
		<g>
			<path class="st2" d="M118,42.8h-2.3V25.2h2.3V42.8z"/>
		</g>
		<g>
			<path class="st2" d="M125.5,43.2c-1.8,0-3.3-0.6-4.4-1.8c-1.1-1.2-1.7-2.7-1.7-4.6c0-1.8,0.6-3.3,1.7-4.5     c1.1-1.3,2.5-1.9,4.2-1.9c1.8,0,3.2,0.6,4.3,1.7c1.1,1.2,1.6,2.7,1.6,4.7l0,0.4h-9.5c0.1,1.2,0.5,2.2,1.2,2.9     c0.7,0.7,1.6,1.1,2.6,1.1c1.6,0,2.7-0.7,3.3-2.1l2,0.8c-0.4,0.9-1,1.7-1.9,2.3C127.9,42.9,126.8,43.2,125.5,43.2z M128.7,35.4     c0-0.7-0.4-1.3-0.9-2c-0.6-0.6-1.4-0.9-2.6-0.9c-0.8,0-1.6,0.3-2.2,0.8c-0.6,0.5-1,1.2-1.3,2.1H128.7z"/>
		</g>
		<g>
			<path class="st2" d="M140,42.8h-2.3V25.2h6c1.5,0,2.8,0.5,3.9,1.5c1.1,1,1.6,2.2,1.6,3.7c0,1.5-0.5,2.8-1.6,3.7     c-1.1,1-2.4,1.5-3.9,1.5H140V42.8z M140,33.5h3.8c0.9,0,1.7-0.3,2.3-1c0.6-0.6,0.9-1.3,0.9-2.1c0-0.8-0.3-1.5-0.9-2.1     c-0.6-0.6-1.3-1-2.3-1H140V33.5z"/>
		</g>
		<g>
			<path class="st2" d="M153,42.8h-2.3V25.2h2.3V42.8z"/>
		</g>
		<g>
			<path class="st2" d="M158.8,43.2c-1.3,0-2.3-0.4-3.2-1.1c-0.9-0.7-1.3-1.7-1.3-2.9c0-1.3,0.5-2.3,1.5-3.1c1-0.7,2.3-1.1,3.8-1.1     c1.3,0,2.4,0.2,3.3,0.7v-0.3c0-0.9-0.3-1.6-0.9-2.1c-0.6-0.5-1.4-0.8-2.2-0.8c-0.7,0-1.2,0.2-1.8,0.5c-0.5,0.3-0.9,0.7-1.1,1.3     l-2.1-0.9c0.3-0.7,0.8-1.4,1.6-2c0.8-0.6,1.9-0.9,3.2-0.9c1.5,0,2.8,0.5,3.8,1.4c1,0.9,1.5,2.2,1.5,3.8v7.3h-2.2v-1.7h-0.1     C161.8,42.5,160.5,43.2,158.8,43.2z M159.1,41.2c0.9,0,1.8-0.3,2.5-1c0.8-0.7,1.1-1.5,1.1-2.5c-0.6-0.5-1.6-0.8-2.9-0.8     c-1.1,0-1.9,0.2-2.5,0.7c-0.6,0.5-0.8,1-0.8,1.7c0,0.6,0.3,1.1,0.8,1.4C157.9,41,158.5,41.2,159.1,41.2z"/>
		</g>
		<g>
			<path class="st2" d="M169.9,48.1h-2.3l2.8-6.1l-5-11.3h2.5l3.6,8.6h0l3.5-8.6h2.5L169.9,48.1z"/>
		</g>
	</g>
	<g>
		<g>
			<path class="st4" d="M14.4,33.7c0-5.6,0-11.2,0-16.8c0-0.7,0.1-1.3,0.6-1.8c0.2-0.2,0.3-0.3,0.6,0c3.8,3.9,7.6,7.7,11.4,11.6     c2.5,2.5,4.9,5,7.4,7.5c0.2,0.2,0.3,0.4,0,0.6c-6,6-12,12-18,18c-0.4,0.4-0.6,0.3-1,0.1c-0.6-0.5-0.9-1.2-0.9-1.9     c0-3.3,0-6.7,0-10C14.4,38.4,14.4,36.1,14.4,33.7C14.4,33.7,14.4,33.7,14.4,33.7z"/>
		</g>
		<g>
			<path class="st4" d="M16.5,14.4c0.5,0,0.8,0.1,1.1,0.3C25.3,19,33,23.3,40.7,27.6c0.4,0.2,0.3,0.3,0.1,0.6     c-1.7,1.7-3.4,3.4-5.1,5.1c-0.2,0.2-0.3,0.3-0.5,0C29,27.1,22.9,20.9,16.7,14.7C16.7,14.6,16.6,14.5,16.5,14.4z"/>
		</g>
		<g>
			<path class="st4" d="M18.3,52.5c5.6-5.6,11.2-11.3,16.7-16.9c0.3-0.4,0.5-0.3,0.8,0c1.4,1.5,2.9,2.9,4.3,4.4     c0.3,0.3,0.3,0.4-0.1,0.5c-7.2,3.9-14.3,7.9-21.5,11.8C18.4,52.4,18.3,52.5,18.3,52.5z"/>
		</g>
		<g>
			<path class="st4" d="M50.2,33.9c0,0.6-0.3,1.1-0.8,1.4c-0.3,0.2-0.7,0.4-1.1,0.7c-2.2,1.2-4.3,2.4-6.5,3.6     c-0.3,0.2-0.5,0.2-0.7-0.1c-1.5-1.6-3.1-3.2-4.7-4.7c-0.2-0.2-0.2-0.4,0-0.6c1.8-1.8,3.6-3.6,5.4-5.4c0.2-0.2,0.4-0.2,0.6-0.1     c2.1,1.2,4.3,2.4,6.4,3.6C49.6,32.6,50.1,33.1,50.2,33.9z"/>
		</g>
	</g>
	<g>
		<path class="st2" d="M56.7,13.6h2.4c0.5,0,0.8,0.1,1.2,0.2c0.3,0.2,0.6,0.4,0.8,0.6c0.2,0.3,0.4,0.6,0.5,0.9    c0.1,0.4,0.2,0.7,0.2,1.1c0,0.4-0.1,0.8-0.2,1.2c-0.1,0.4-0.3,0.7-0.5,0.9c-0.2,0.3-0.5,0.5-0.8,0.6c-0.3,0.2-0.7,0.2-1.2,0.2    h-2.4V13.6z M57.7,18.7h1c0.4,0,0.7-0.1,1-0.2c0.3-0.1,0.5-0.3,0.6-0.4c0.1-0.2,0.2-0.4,0.3-0.7c0.1-0.3,0.1-0.5,0.1-0.8    c0-0.3,0-0.6-0.1-0.8c-0.1-0.3-0.2-0.5-0.3-0.7c-0.1-0.2-0.3-0.3-0.6-0.4c-0.3-0.1-0.6-0.2-1-0.2h-1V18.7z"/>
		<path class="st2" d="M62.6,13.6h0.9v0.9h-0.9V13.6z M62.6,15.2h0.9v4.3h-0.9V15.2z"/>
		<path class="st2" d="M65.2,18.1c0,0.3,0.1,0.5,0.3,0.6c0.2,0.1,0.4,0.2,0.7,0.2c0.1,0,0.2,0,0.3,0c0.1,0,0.2,0,0.3-0.1    c0.1,0,0.2-0.1,0.2-0.2c0.1-0.1,0.1-0.2,0.1-0.3c0-0.1,0-0.2-0.1-0.3c-0.1-0.1-0.2-0.1-0.3-0.2c-0.1,0-0.3-0.1-0.4-0.1    c-0.2,0-0.3-0.1-0.5-0.1c-0.2,0-0.3-0.1-0.5-0.1c-0.2-0.1-0.3-0.1-0.4-0.2c-0.1-0.1-0.2-0.2-0.3-0.4c-0.1-0.1-0.1-0.3-0.1-0.5    c0-0.2,0.1-0.4,0.2-0.6c0.1-0.2,0.3-0.3,0.4-0.4c0.2-0.1,0.4-0.2,0.6-0.2c0.2,0,0.4-0.1,0.6-0.1c0.2,0,0.4,0,0.6,0.1    c0.2,0,0.4,0.1,0.5,0.2c0.2,0.1,0.3,0.2,0.4,0.4c0.1,0.2,0.2,0.4,0.2,0.6h-1c0-0.2-0.1-0.4-0.3-0.5c-0.2-0.1-0.3-0.1-0.6-0.1    c-0.1,0-0.1,0-0.2,0c-0.1,0-0.2,0-0.3,0.1c-0.1,0-0.1,0.1-0.2,0.1c-0.1,0.1-0.1,0.1-0.1,0.2c0,0.1,0,0.2,0.1,0.3    c0.1,0.1,0.2,0.1,0.3,0.2c0.1,0,0.3,0.1,0.4,0.1c0.2,0,0.3,0.1,0.5,0.1c0.2,0,0.3,0.1,0.5,0.1c0.2,0.1,0.3,0.1,0.4,0.2    c0.1,0.1,0.2,0.2,0.3,0.4c0.1,0.1,0.1,0.3,0.1,0.5c0,0.3-0.1,0.5-0.2,0.6c-0.1,0.2-0.3,0.3-0.5,0.4c-0.2,0.1-0.4,0.2-0.6,0.2    c-0.2,0-0.4,0.1-0.7,0.1c-0.3,0-0.5,0-0.7-0.1c-0.2-0.1-0.4-0.2-0.6-0.3c-0.2-0.1-0.3-0.3-0.4-0.5c-0.1-0.2-0.1-0.4-0.2-0.7H65.2z    "/>
		<path class="st2" d="M68.8,15.2h0.9v0.6h0c0.1-0.2,0.3-0.4,0.6-0.5s0.5-0.2,0.8-0.2c0.3,0,0.6,0.1,0.9,0.2    c0.3,0.1,0.5,0.3,0.6,0.5c0.2,0.2,0.3,0.4,0.4,0.7c0.1,0.3,0.1,0.6,0.1,0.9c0,0.3,0,0.6-0.1,0.8s-0.2,0.5-0.3,0.7    c-0.2,0.2-0.3,0.4-0.6,0.5c-0.2,0.1-0.5,0.2-0.8,0.2c-0.1,0-0.3,0-0.4,0c-0.1,0-0.3-0.1-0.4-0.1c-0.1-0.1-0.2-0.1-0.4-0.2    c-0.1-0.1-0.2-0.2-0.3-0.3h0v2.1h-0.9V15.2z M72.1,17.4c0-0.2,0-0.4-0.1-0.6c0-0.2-0.1-0.3-0.2-0.5c-0.1-0.1-0.2-0.3-0.4-0.3    c-0.1-0.1-0.3-0.1-0.5-0.1c-0.4,0-0.7,0.1-0.9,0.4c-0.2,0.3-0.3,0.6-0.3,1.1c0,0.2,0,0.4,0.1,0.6c0.1,0.2,0.1,0.3,0.2,0.5    c0.1,0.1,0.2,0.2,0.4,0.3c0.1,0.1,0.3,0.1,0.5,0.1c0.2,0,0.4,0,0.5-0.1c0.1-0.1,0.3-0.2,0.4-0.3c0.1-0.1,0.2-0.3,0.2-0.5    C72.1,17.7,72.1,17.5,72.1,17.4z"/>
		<path class="st2" d="M75.8,19.6c-0.3,0-0.6-0.1-0.9-0.2s-0.5-0.3-0.7-0.5c-0.2-0.2-0.3-0.4-0.4-0.7c-0.1-0.3-0.1-0.6-0.1-0.9    c0-0.3,0-0.6,0.1-0.9c0.1-0.3,0.2-0.5,0.4-0.7c0.2-0.2,0.4-0.4,0.7-0.5c0.3-0.1,0.6-0.2,0.9-0.2c0.3,0,0.6,0.1,0.9,0.2    c0.3,0.1,0.5,0.3,0.7,0.5c0.2,0.2,0.3,0.4,0.4,0.7c0.1,0.3,0.1,0.6,0.1,0.9c0,0.3,0,0.6-0.1,0.9c-0.1,0.3-0.2,0.5-0.4,0.7    c-0.2,0.2-0.4,0.4-0.7,0.5S76.2,19.6,75.8,19.6z M75.8,18.9c0.2,0,0.4,0,0.5-0.1c0.2-0.1,0.3-0.2,0.4-0.3c0.1-0.1,0.2-0.3,0.2-0.5    c0-0.2,0.1-0.4,0.1-0.6c0-0.2,0-0.4-0.1-0.5c0-0.2-0.1-0.3-0.2-0.5c-0.1-0.1-0.2-0.3-0.4-0.3c-0.2-0.1-0.3-0.1-0.5-0.1    c-0.2,0-0.4,0-0.5,0.1c-0.2,0.1-0.3,0.2-0.4,0.3c-0.1,0.1-0.2,0.3-0.2,0.5c0,0.2-0.1,0.4-0.1,0.5c0,0.2,0,0.4,0.1,0.6    c0,0.2,0.1,0.3,0.2,0.5c0.1,0.1,0.2,0.3,0.4,0.3C75.4,18.8,75.6,18.9,75.8,18.9z"/>
		<path class="st2" d="M78.8,15.2h0.9v0.6l0,0c0.1-0.2,0.3-0.4,0.6-0.6c0.2-0.1,0.5-0.2,0.8-0.2c0.5,0,0.8,0.1,1.1,0.4    c0.3,0.2,0.4,0.6,0.4,1.1v2.9h-0.9v-2.7c0-0.3-0.1-0.6-0.2-0.7c-0.1-0.2-0.3-0.2-0.6-0.2c-0.2,0-0.3,0-0.4,0.1    c-0.1,0.1-0.2,0.1-0.3,0.2c-0.1,0.1-0.2,0.2-0.2,0.4c0,0.1-0.1,0.3-0.1,0.4v2.5h-0.9V15.2z"/>
		<path class="st2" d="M84.3,13.4h1.1l-1.2,1.2h-0.7L84.3,13.4z M83.5,19.5v-4.3h0.9v4.3H83.5z"/>
		<path class="st2" d="M85.1,15.2h1l1.1,3.3h0l1-3.3h1l-1.5,4.3h-1.1L85.1,15.2z"/>
		<path class="st2" d="M90.5,17.6c0,0.2,0,0.3,0.1,0.5c0,0.2,0.1,0.3,0.2,0.4c0.1,0.1,0.2,0.2,0.4,0.3c0.1,0.1,0.3,0.1,0.5,0.1    c0.3,0,0.5-0.1,0.7-0.2c0.2-0.1,0.3-0.3,0.4-0.5h0.9c0,0.2-0.1,0.4-0.3,0.6c-0.1,0.2-0.3,0.3-0.4,0.5c-0.2,0.1-0.4,0.2-0.6,0.3    c-0.2,0.1-0.4,0.1-0.7,0.1c-0.3,0-0.6-0.1-0.9-0.2c-0.3-0.1-0.5-0.3-0.7-0.5c-0.2-0.2-0.3-0.4-0.4-0.7c-0.1-0.3-0.1-0.6-0.1-0.9    c0-0.3,0-0.6,0.1-0.9c0.1-0.3,0.2-0.5,0.4-0.7c0.2-0.2,0.4-0.4,0.6-0.5c0.3-0.1,0.5-0.2,0.9-0.2c0.3,0,0.6,0.1,0.9,0.2    s0.5,0.3,0.7,0.6c0.2,0.2,0.3,0.5,0.4,0.8c0.1,0.3,0.1,0.6,0.1,0.9H90.5z M92.7,17c0-0.1,0-0.3-0.1-0.4c-0.1-0.1-0.1-0.3-0.2-0.4    c-0.1-0.1-0.2-0.2-0.3-0.2c-0.1-0.1-0.3-0.1-0.4-0.1c-0.2,0-0.3,0-0.5,0.1c-0.1,0.1-0.3,0.1-0.3,0.2c-0.1,0.1-0.2,0.2-0.2,0.4    c-0.1,0.1-0.1,0.3-0.1,0.4H92.7z"/>
		<path class="st2" d="M94.4,13.6h0.9v5.9h-0.9V13.6z"/>
		<path class="st2" d="M98.7,15.2h0.9v0.6l0,0c0.1-0.2,0.3-0.4,0.6-0.6c0.2-0.1,0.5-0.2,0.8-0.2c0.5,0,0.8,0.1,1.1,0.4    c0.3,0.2,0.4,0.6,0.4,1.1v2.9h-0.9v-2.7c0-0.3-0.1-0.6-0.2-0.7c-0.1-0.2-0.3-0.2-0.6-0.2c-0.2,0-0.3,0-0.4,0.1    c-0.1,0.1-0.2,0.1-0.3,0.2c-0.1,0.1-0.2,0.2-0.2,0.4c0,0.1-0.1,0.3-0.1,0.4v2.5h-0.9V15.2z"/>
		<path class="st2" d="M107,18.5c0,0.1,0,0.2,0,0.2c0,0,0.1,0.1,0.2,0.1c0,0,0.1,0,0.1,0c0,0,0.1,0,0.1,0v0.7c0,0-0.1,0-0.1,0    c-0.1,0-0.1,0-0.2,0c-0.1,0-0.1,0-0.2,0c-0.1,0-0.1,0-0.1,0c-0.2,0-0.4,0-0.5-0.1c-0.1-0.1-0.2-0.2-0.2-0.4    c-0.2,0.2-0.4,0.3-0.7,0.4c-0.3,0.1-0.5,0.1-0.8,0.1c-0.2,0-0.4,0-0.6-0.1c-0.2-0.1-0.3-0.1-0.5-0.2c-0.1-0.1-0.2-0.2-0.3-0.4    s-0.1-0.3-0.1-0.6c0-0.3,0-0.5,0.1-0.6c0.1-0.2,0.2-0.3,0.4-0.4c0.2-0.1,0.3-0.2,0.5-0.2c0.2,0,0.4-0.1,0.6-0.1    c0.2,0,0.3-0.1,0.5-0.1c0.2,0,0.3,0,0.4-0.1c0.1,0,0.2-0.1,0.3-0.2c0.1-0.1,0.1-0.2,0.1-0.3c0-0.1,0-0.2-0.1-0.3    c-0.1-0.1-0.1-0.1-0.2-0.2c-0.1,0-0.2-0.1-0.3-0.1c-0.1,0-0.2,0-0.3,0c-0.3,0-0.5,0.1-0.7,0.2c-0.2,0.1-0.3,0.3-0.3,0.5h-0.9    c0-0.3,0.1-0.5,0.2-0.7c0.1-0.2,0.3-0.3,0.4-0.4c0.2-0.1,0.4-0.2,0.6-0.2c0.2,0,0.5-0.1,0.7-0.1c0.2,0,0.4,0,0.6,0.1    c0.2,0,0.4,0.1,0.6,0.2c0.2,0.1,0.3,0.2,0.4,0.4c0.1,0.2,0.1,0.3,0.1,0.6V18.5z M106.1,17.4c-0.1,0.1-0.3,0.2-0.5,0.2    c-0.2,0-0.4,0-0.6,0.1c-0.1,0-0.2,0-0.3,0.1c-0.1,0-0.2,0.1-0.2,0.1c-0.1,0.1-0.1,0.1-0.2,0.2c0,0.1-0.1,0.2-0.1,0.3    c0,0.1,0,0.2,0.1,0.3c0.1,0.1,0.1,0.1,0.2,0.2c0.1,0,0.2,0.1,0.3,0.1c0.1,0,0.2,0,0.3,0c0.1,0,0.2,0,0.3,0c0.1,0,0.2-0.1,0.3-0.1    c0.1-0.1,0.2-0.2,0.3-0.3c0.1-0.1,0.1-0.2,0.1-0.4V17.4z"/>
	</g>
	<g>
		<g>
			<path class="st2" d="M179.5,66.9H8.9c-5,0-9-4.1-9-9v-49c0-5,4.1-9,9-9h170.5c5,0,9,4.1,9,9v49C188.5,62.8,184.4,66.9,179.5,66.9     z M8.9,2.1c-3.7,0-6.7,3-6.7,6.7v49c0,3.7,3,6.7,6.7,6.7h170.5c3.7,0,6.7-3,6.7-6.7v-49c0-3.7-3-6.7-6.7-6.7H8.9z"/>
		</g>
	</g>
</g>
</svg>
