<svg xmlns="http://www.w3.org/2000/svg" viewBox="0 0 30 30"><defs><style>.a{fill:#FFC045;}.b{fill:#fff;}</style></defs><g transform="translate(-718 -20)"><path class="a" d="M302.9,0h0a15,15,0,0,1,15,15h0a15,15,0,0,1-15,15h0a15,15,0,0,1-15-15h0A15,15,0,0,1,302.9,0Z" transform="translate(430.1 20)"/><path class="b" d="M312.236,11.3H301.164a1.982,1.982,0,0,0-1.964,1.964V24.336a1.982,1.982,0,0,0,1.964,1.964h11.071a1.982,1.982,0,0,0,1.964-1.964V13.264A1.982,1.982,0,0,0,312.236,11.3ZM306.7,22.61a3.81,3.81,0,1,1,3.81-3.81A3.836,3.836,0,0,1,306.7,22.61Zm4.464-6.845a1.429,1.429,0,1,1,1.429-1.429A1.41,1.41,0,0,1,311.164,15.764Z" transform="translate(426.8 16.7)"/></g></svg>
