<svg xmlns="http://www.w3.org/2000/svg" viewBox="0 0 30 30"><defs><style>.a{fill:#FFC045;}.b{fill:#fff;}</style></defs><g transform="translate(-618 -20)"><path class="a" d="M111,0h0a15,15,0,0,1,15,15h0a15,15,0,0,1-15,15h0A15,15,0,0,1,96,15h0A15,15,0,0,1,111,0Z" transform="translate(522 20)"/><path class="b" d="M123.007,19.57v5.769h-3.34v-5.4c0-1.336-.486-2.308-1.7-2.308a1.809,1.809,0,0,0-1.7,1.215,3.077,3.077,0,0,0-.121.789v5.648H112.8s.061-9.17,0-10.081h3.34v1.518h0v-.061a3.3,3.3,0,0,1,3.036-1.64c2.186.061,3.826,1.457,3.826,4.555ZM109.283,10.4a1.724,1.724,0,0,0-1.883,1.761,1.757,1.757,0,0,0,1.883,1.761h0a1.757,1.757,0,0,0,1.883-1.761,1.83,1.83,0,0,0-1.883-1.761Zm-1.7,15h3.34V15.319h-3.34Zm0,0" transform="translate(517.6 17.6)"/></g></svg>
