<svg xmlns="http://www.w3.org/2000/svg" viewBox="0 0 30 30"><defs><style>.a{fill:#FFC045;}.b{fill:#fff;}</style></defs><g transform="translate(-668 -20)"><path class="a" d="M207,0h0a15,15,0,0,1,15,15h0a15,15,0,0,1-15,15h0a15,15,0,0,1-15-15h0A14.92,14.92,0,0,1,207,0Z" transform="translate(476.001 20)"/><g transform="translate(674 28)"><path class="b" d="M208.349,28.8a10.723,10.723,0,0,0,10.779-10.779V17.5a8.935,8.935,0,0,0,1.883-1.948,6.194,6.194,0,0,1-2.143.584,4.1,4.1,0,0,0,1.688-2.078,6.357,6.357,0,0,1-2.4.909,3.924,3.924,0,0,0-2.792-1.169,3.769,3.769,0,0,0-3.766,3.766,3.291,3.291,0,0,0,.13.844,10.776,10.776,0,0,1-7.792-3.961,3.913,3.913,0,0,0-.52,1.883,3.852,3.852,0,0,0,1.688,3.182,3.428,3.428,0,0,1-1.688-.455v.065a3.763,3.763,0,0,0,3.052,3.7,5.012,5.012,0,0,1-.974.13,2.664,2.664,0,0,1-.714-.065,3.848,3.848,0,0,0,3.507,2.662,7.432,7.432,0,0,1-4.675,1.623,4.287,4.287,0,0,1-.909-.065,10.015,10.015,0,0,0,5.649,1.688" transform="translate(-202.7 -13.8)"/></g></g></svg>
