<svg xmlns="http://www.w3.org/2000/svg" viewBox="0 0 30 30"><defs><style>.a{fill:#FFC045;}.b{fill:#fff;}</style></defs><g transform="translate(-768 -20)"><path class="a" d="M398.9,0h0a15,15,0,0,1,15,15h0a15,15,0,0,1-15,15h0a15,15,0,0,1-15-15h0A15,15,0,0,1,398.9,0Z" transform="translate(384.1 20)"/><g transform="translate(775 29)"><path class="b" d="M409.86,15.564a2.011,2.011,0,0,0-1.515-1.515,63.262,63.262,0,0,0-13.282,0,2.1,2.1,0,0,0-1.515,1.515A22.959,22.959,0,0,0,393.2,19.7a22.959,22.959,0,0,0,.349,4.136,2.011,2.011,0,0,0,1.515,1.515,51.724,51.724,0,0,0,6.641.35,51.724,51.724,0,0,0,6.641-.35,2.1,2.1,0,0,0,1.515-1.515,22.957,22.957,0,0,0,.35-4.136A22.611,22.611,0,0,0,409.86,15.564ZM399.2,23.079V16.2l6,3.437Z" transform="translate(-393.2 -13.7)"/></g></g></svg>
